<svg width="20" height="20" viewBox="0 0 20 20" fill="none" xmlns="http://www.w3.org/2000/svg">
<path fill-rule="evenodd" clip-rule="evenodd" d="M11.6667 1.66671C11.6667 1.20647 11.2936 0.833374 10.8333 0.833374H5C3.61929 0.833374 2.5 1.95266 2.5 3.33337V16.6667C2.5 18.0474 3.61929 19.1667 5 19.1667H15C16.3807 19.1667 17.5 18.0474 17.5 16.6667V7.50004C17.5 7.0398 17.1269 6.66671 16.6667 6.66671H14.1667C12.786 6.66671 11.6667 5.54742 11.6667 4.16671V1.66671ZM10.5893 14.756C10.5094 14.8359 10.4173 14.8961 10.319 14.9368C10.0169 15.0618 9.65628 15.0015 9.41074 14.756L6.91074 12.256C6.58531 11.9305 6.58531 11.4029 6.91074 11.0774C7.23618 10.752 7.76382 10.752 8.08925 11.0774L9.16667 12.1549V8.33337C9.16667 7.87314 9.53976 7.50004 10 7.50004C10.4602 7.50004 10.8333 7.87314 10.8333 8.33337V12.1549L11.9107 11.0774C12.2362 10.752 12.7638 10.752 13.0893 11.0774C13.4147 11.4029 13.4147 11.9305 13.0893 12.256L10.5893 14.756Z" />
<path fill-rule="evenodd" clip-rule="evenodd" d="M14.148 0.981345C13.7236 0.803365 13.3335 1.20651 13.3335 1.66675V4.16675C13.3335 4.62699 13.7066 5.00008 14.1668 5.00008H16.6668C17.1271 5.00008 17.5302 4.60999 17.3522 4.18556C17.2752 4.00181 17.1645 3.83105 17.012 3.6786L14.655 1.32157C14.5025 1.16912 14.3318 1.0584 14.148 0.981345Z" />
</svg>
