<svg width="20" height="20" viewBox="0 0 20 20" fill="none" xmlns="http://www.w3.org/2000/svg">
<path fill-rule="evenodd" clip-rule="evenodd" d="M11.6667 1.66671C11.6667 1.20647 11.2936 0.833374 10.8333 0.833374H5C3.61929 0.833374 2.5 1.95266 2.5 3.33337V16.6667C2.5 18.0474 3.61929 19.1667 5 19.1667H15C16.3807 19.1667 17.5 18.0474 17.5 16.6667V7.50004C17.5 7.0398 17.1269 6.66671 16.6667 6.66671H14.1667C12.786 6.66671 11.6667 5.54742 11.6667 4.16671V1.66671ZM9.41074 7.74412C9.49064 7.66422 9.58273 7.60394 9.68101 7.56327C9.98307 7.4383 10.3437 7.49858 10.5893 7.74412L13.0893 10.2441C13.4147 10.5696 13.4147 11.0972 13.0893 11.4226C12.7638 11.7481 12.2362 11.7481 11.9107 11.4226L10.8333 10.3452V14.1667C10.8333 14.6269 10.4602 15 10 15C9.53976 15 9.16667 14.6269 9.16667 14.1667V10.3452L8.08926 11.4226C7.76382 11.7481 7.23618 11.7481 6.91074 11.4226C6.58531 11.0972 6.58531 10.5696 6.91074 10.2441L9.41074 7.74412Z" />
<path fill-rule="evenodd" clip-rule="evenodd" d="M14.148 0.981345C13.7236 0.803365 13.3335 1.20651 13.3335 1.66675V4.16675C13.3335 4.62699 13.7066 5.00008 14.1668 5.00008H16.6668C17.1271 5.00008 17.5302 4.60999 17.3522 4.18556C17.2752 4.00181 17.1645 3.83105 17.012 3.6786L14.655 1.32157C14.5025 1.16912 14.3318 1.0584 14.148 0.981345Z" fill="#B1B5C4"/>
</svg>
