<svg width="18" height="18" viewBox="0 0 18 18" fill="none" xmlns="http://www.w3.org/2000/svg">
<path fill-rule="evenodd" clip-rule="evenodd" d="M7.63806 0.410248C8.05141 0.169618 8.52116 0.0428467 8.99945 0.0428467C9.47777 0.0428467 9.94754 0.169633 10.3609 0.410289L16.2983 3.86569C16.6127 4.04888 16.874 4.31142 17.0555 4.62679C17.237 4.94216 17.3327 5.29957 17.3332 5.66343V12.3348C17.3331 12.6987 17.2377 13.0565 17.0564 13.3721C16.8751 13.6877 16.6143 13.9503 16.3 14.1338L10.3616 17.5898C9.94825 17.83 9.4783 17.9568 9.00023 17.9568C8.52216 17.9568 8.05261 17.8302 7.63929 17.59L1.70138 14.1343C1.3868 13.951 1.12537 13.6883 0.94386 13.3726C0.762349 13.057 0.66672 12.6993 0.666504 12.3353L0.666504 5.66343C0.666948 5.29957 0.762684 4.94216 0.944184 4.62679C1.12568 4.31142 1.38662 4.04909 1.70101 3.86591L7.63806 0.410248ZM8.99945 1.70951C8.81573 1.70951 8.6353 1.75821 8.47653 1.85064L2.54007 5.30596C2.47734 5.34259 2.42494 5.39517 2.38871 5.45814C2.35247 5.52111 2.33332 5.59246 2.33317 5.6651V12.3344C2.33325 12.4072 2.35237 12.4787 2.38864 12.5417C2.42494 12.6049 2.47715 12.6574 2.54007 12.694L8.47679 16.149C8.63576 16.2414 8.81636 16.2901 9.00023 16.2901C9.1841 16.2901 9.36469 16.2414 9.52367 16.149L15.4599 12.6943C15.5226 12.6577 15.575 12.605 15.6111 12.542C15.6474 12.4789 15.6665 12.4075 15.6665 12.3348V5.66547C15.6664 5.59269 15.6473 5.52121 15.611 5.45814C15.5747 5.39519 15.5227 5.3428 15.46 5.30618L9.52247 1.85071C9.3637 1.75828 9.18316 1.70951 8.99945 1.70951Z" />
<path fill-rule="evenodd" clip-rule="evenodd" d="M0.976871 4.59271C1.21022 4.19602 1.72097 4.0636 2.11767 4.29695L8.99984 8.34529L15.882 4.29695C16.2787 4.0636 16.7895 4.19602 17.0228 4.59271C17.2562 4.98941 17.1237 5.50016 16.727 5.73351L9.83317 9.78873V17.1246C9.83317 17.5849 9.46008 17.958 8.99984 17.958C8.5396 17.958 8.1665 17.5849 8.1665 17.1246V9.78873L1.27263 5.73351C0.875938 5.50016 0.743522 4.98941 0.976871 4.59271Z" />
</svg>
