<svg width="18" height="18" viewBox="0 0 18 18" fill="none" xmlns="http://www.w3.org/2000/svg">
<path d="M16.2227 4.32402C16.2462 4.31026 16.2658 4.29056 16.2794 4.26688C16.293 4.2432 16.3002 4.21637 16.3002 4.18906C16.3002 4.16175 16.293 4.13492 16.2794 4.11124C16.2658 4.08756 16.2462 4.06786 16.2227 4.0541L10.2563 0.587694C9.87449 0.366413 9.44106 0.249878 8.99981 0.249878C8.55855 0.249878 8.12512 0.366413 7.74336 0.587694L1.77813 4.0541C1.75454 4.06786 1.73497 4.08756 1.72137 4.11124C1.70777 4.13492 1.70062 4.16175 1.70062 4.18906C1.70062 4.21637 1.70777 4.2432 1.72137 4.26688C1.73497 4.29056 1.75454 4.31026 1.77813 4.32402L8.92188 8.52636C8.94591 8.54052 8.97329 8.54798 9.00118 8.54798C9.02906 8.54798 9.05644 8.54052 9.08047 8.52636L16.2227 4.32402ZM1.10938 5.38691C1.08555 5.37315 1.05851 5.36593 1.031 5.36598C1.00349 5.36602 0.976471 5.37333 0.952688 5.38716C0.928905 5.401 0.909197 5.42087 0.895556 5.44476C0.881915 5.46865 0.874825 5.49573 0.875003 5.52324V12.3158C0.875593 12.6432 0.961866 12.9646 1.12524 13.2483C1.28862 13.5319 1.52341 13.7679 1.80625 13.9326L8.14063 17.7307C8.16437 17.7444 8.1913 17.7516 8.21871 17.7516C8.24613 17.7516 8.27306 17.7444 8.29681 17.7307C8.32056 17.717 8.34029 17.6973 8.35401 17.6736C8.36774 17.6498 8.37498 17.6229 8.375 17.5955V9.71464C8.37498 9.68724 8.36774 9.66033 8.35403 9.63661C8.34032 9.61289 8.32061 9.59319 8.29688 9.57949L1.10938 5.38691ZM9.625 9.74199V17.5935C9.62503 17.621 9.63227 17.6479 9.646 17.6716C9.65972 17.6953 9.67945 17.7151 9.7032 17.7287C9.72695 17.7424 9.75388 17.7496 9.78129 17.7496C9.80871 17.7496 9.83564 17.7424 9.85938 17.7287L16.1934 13.9307C16.476 13.7661 16.7107 13.5305 16.8741 13.2472C17.0375 12.964 17.124 12.6429 17.125 12.3158V5.52324C17.1249 5.49586 17.1176 5.46898 17.1039 5.44531C17.0901 5.42163 17.0704 5.40198 17.0466 5.38834C17.0229 5.37469 16.996 5.36752 16.9686 5.36754C16.9412 5.36756 16.9143 5.37478 16.8906 5.38847L9.70313 9.60722C9.67946 9.62089 9.65979 9.64053 9.64608 9.66418C9.63237 9.68782 9.6251 9.71465 9.625 9.74199Z" />
</svg>
