<svg width="20" height="20" viewBox="0 0 20 20" fill="none" xmlns="http://www.w3.org/2000/svg">
<path fill-rule="evenodd" clip-rule="evenodd" d="M11.6667 1.66671C11.6667 1.20647 11.2936 0.833374 10.8333 0.833374H5C3.61929 0.833374 2.5 1.95266 2.5 3.33337V16.6667C2.5 18.0474 3.61929 19.1667 5 19.1667H15C16.3807 19.1667 17.5 18.0474 17.5 16.6667V7.50004C17.5 7.0398 17.1269 6.66671 16.6667 6.66671H14.1667C12.786 6.66671 11.6667 5.54742 11.6667 4.16671V1.66671ZM6.07741 12.256C5.75197 11.9305 5.75197 11.4029 6.07741 11.0775L7.74408 9.41078C8.06951 9.08535 8.59715 9.08535 8.92259 9.41078C9.24803 9.73622 9.24803 10.2639 8.92259 10.5893L7.84518 11.6667L8.92259 12.7441C9.24803 13.0696 9.24803 13.5972 8.92259 13.9226C8.59715 14.2481 8.06951 14.2481 7.74408 13.9226L6.07741 12.256ZM13.9226 11.0775L12.2559 9.41078C11.9305 9.08535 11.4028 9.08535 11.0774 9.41078C10.752 9.73622 10.752 10.2639 11.0774 10.5893L12.1548 11.6667L11.0774 12.7441C10.752 13.0696 10.752 13.5972 11.0774 13.9226C11.4028 14.2481 11.9305 14.2481 12.2559 13.9226L13.9226 12.256C14.248 11.9305 14.248 11.4029 13.9226 11.0775Z" />
<path fill-rule="evenodd" clip-rule="evenodd" d="M14.148 0.981345C13.7236 0.803365 13.3335 1.20651 13.3335 1.66675V4.16675C13.3335 4.62699 13.7066 5.00008 14.1668 5.00008H16.6668C17.1271 5.00008 17.5302 4.60999 17.3522 4.18556C17.2752 4.00181 17.1645 3.83105 17.012 3.6786L14.655 1.32157C14.5025 1.16912 14.3318 1.0584 14.148 0.981345Z" />
</svg>
