<svg width="20" height="20" viewBox="0 0 20 20" fill="none" xmlns="http://www.w3.org/2000/svg">
<path fill-rule="evenodd" clip-rule="evenodd" d="M9.99984 18.3333C14.6022 18.3333 18.3332 14.6023 18.3332 9.99996C18.3332 5.39759 14.6022 1.66663 9.99984 1.66663C5.39746 1.66663 1.6665 5.39759 1.6665 9.99996C1.6665 14.6023 5.39746 18.3333 9.99984 18.3333ZM10.8332 5.83329C10.8332 5.37306 10.4601 4.99996 9.99984 4.99996C9.5396 4.99996 9.1665 5.37306 9.1665 5.83329V9.99996C9.1665 10.221 9.2543 10.4329 9.41058 10.5892L11.4939 12.6725C11.8194 12.998 12.347 12.998 12.6724 12.6725C12.9979 12.3471 12.9979 11.8195 12.6724 11.494L10.8332 9.65478V5.83329Z" />
</svg>
