<svg width="20" height="20" viewBox="0 0 20 20" fill="none" xmlns="http://www.w3.org/2000/svg">
<path fill-rule="evenodd" clip-rule="evenodd" d="M3.33333 8.33337C2.8731 8.33337 2.5 8.70647 2.5 9.16671V15.8334C2.5 17.2141 3.61929 18.3334 5 18.3334H15C16.3807 18.3334 17.5 17.2141 17.5 15.8334V9.16671C17.5 8.70647 17.1269 8.33337 16.6667 8.33337H3.33333ZM8.33333 10C7.8731 10 7.5 10.3731 7.5 10.8334C7.5 11.2936 7.8731 11.6667 8.33333 11.6667H11.6667C12.1269 11.6667 12.5 11.2936 12.5 10.8334C12.5 10.3731 12.1269 10 11.6667 10H8.33333Z" />
<path fill-rule="evenodd" clip-rule="evenodd" d="M1.6665 3.33329C1.6665 2.41282 2.4127 1.66663 3.33317 1.66663H16.6665C17.587 1.66663 18.3332 2.41282 18.3332 3.33329V4.99996C18.3332 5.92043 17.587 6.66663 16.6665 6.66663H3.33317C2.4127 6.66663 1.6665 5.92043 1.6665 4.99996V3.33329Z" />
</svg>
