<svg width="24" height="24" viewBox="0 0 24 24" fill="none" xmlns="http://www.w3.org/2000/svg">
<path d="M4.83333 8C4.3731 8 4 8.44772 4 9C4 9.55228 4.3731 10 4.83333 10H13.1667C13.6269 10 14 9.55228 14 9C14 8.44772 13.6269 8 13.1667 8H4.83333Z" fill="#178FE1"/>
<path d="M4.83333 14C4.3731 14 4 14.4477 4 15C4 15.5523 4.3731 16 4.83333 16H13.1667C13.6269 16 14 15.5523 14 15C14 14.4477 13.6269 14 13.1667 14H4.83333Z" fill="#178FE1"/>
<path fill-rule="evenodd" clip-rule="evenodd" d="M20.2071 7.79289C20.5976 8.18342 20.5976 8.81658 20.2071 9.20711L17.4142 12L20.2071 14.7929C20.5976 15.1834 20.5976 15.8166 20.2071 16.2071C19.8166 16.5976 19.1834 16.5976 18.7929 16.2071L15.2929 12.7071C14.9024 12.3166 14.9024 11.6834 15.2929 11.2929L18.7929 7.79289C19.1834 7.40237 19.8166 7.40237 20.2071 7.79289Z" fill="#178FE1"/>
</svg>
