<svg width="20" height="20" viewBox="0 0 20 20" fill="none" xmlns="http://www.w3.org/2000/svg">
<path fill-rule="evenodd" clip-rule="evenodd" d="M7.41221 17.0393C7.61803 16.6277 7.45118 16.1271 7.03953 15.9213C6.62788 15.7155 6.12732 15.8823 5.92149 16.294L5.08816 17.9606C4.88234 18.3723 5.04919 18.8728 5.46084 19.0787C5.87249 19.2845 6.37305 19.1176 6.57887 18.706L7.41221 17.0393Z" />
<path fill-rule="evenodd" clip-rule="evenodd" d="M12.5882 17.0393C12.3824 16.6277 12.5492 16.1271 12.9609 15.9213C13.3725 15.7155 13.8731 15.8823 14.0789 16.294L14.9122 17.9606C15.1181 18.3723 14.9512 18.8728 14.5396 19.0787C14.1279 19.2845 13.6274 19.1176 13.4215 18.706L12.5882 17.0393Z" />
<path fill-rule="evenodd" clip-rule="evenodd" d="M9.16667 1.66671C9.16667 1.20647 9.53976 0.833374 10 0.833374C10.4602 0.833374 10.8333 1.20647 10.8333 1.66671V2.50004H15C16.3807 2.50004 17.5 3.61933 17.5 5.00004V11.6667C17.5 13.0474 16.3807 14.1667 15 14.1667H5C3.61929 14.1667 2.5 13.0474 2.5 11.6667V5.00004C2.5 3.61933 3.61929 2.50004 5 2.50004H9.16667V1.66671ZM14.8174 6.35398C15.1049 5.9946 15.0466 5.47019 14.6872 5.18268C14.3279 4.89517 13.8034 4.95344 13.5159 5.31283L10.6599 8.8829L8.79558 7.64003C8.46507 7.41968 8.02496 7.46326 7.74408 7.74415L5.24408 10.2441C4.91864 10.5696 4.91864 11.0972 5.24408 11.4227C5.56951 11.7481 6.09715 11.7481 6.42259 11.4227L8.43952 9.40573L10.3711 10.6934C10.7307 10.9332 11.214 10.8582 11.4841 10.5206L14.8174 6.35398Z" />
</svg>
