<svg xmlns="http://www.w3.org/2000/svg" width="20" height="16" viewBox="0 0 20 16"><path fill-rule="evenodd" d="M16.6666 8.5H17.1666V8V6.33333V5.83333H16.6666H3.33325H2.83325V6.33333V8V8.5H3.33325H16.6666ZM16.6666 5.16667H17.1666V4.66667V3V2.5H16.6666H3.33325H2.83325V3V4.66667V5.16667H3.33325H16.6666ZM2.49992 1H17.4999C18.1404 1 18.6666 1.52614 18.6666 2.16667V13.8333C18.6666 14.4739 18.1404 15 17.4999 15H2.49992C1.85939 15 1.33325 14.4739 1.33325 13.8333V2.16667C1.33325 1.52614 1.85939 1 2.49992 1Z"/></svg>