<svg width="20" height="20" viewBox="0 0 20 20" fill="none" xmlns="http://www.w3.org/2000/svg">
<path fill-rule="evenodd" d="M19.2121 11.8906L19.1919 11.8743L17.8358 10.8108C17.7499 10.7429 17.6814 10.6555 17.6358 10.556C17.5903 10.4564 17.569 10.3474 17.5737 10.238V9.74133C17.5694 9.63263 17.5909 9.52445 17.6366 9.4257C17.6822 9.32695 17.7506 9.24044 17.8362 9.17328L19.1919 8.10938L19.2121 8.09305C19.4212 7.91888 19.5615 7.67602 19.6079 7.4079C19.6544 7.13978 19.6039 6.86387 19.4656 6.62953L17.6304 3.45414C17.6283 3.45114 17.6264 3.44798 17.6248 3.44469C17.4858 3.21359 17.2702 3.03848 17.0155 2.94979C16.7607 2.86109 16.483 2.8644 16.2305 2.95914L16.2154 2.96473L14.6213 3.60625C14.5207 3.64693 14.4118 3.66312 14.3037 3.65348C14.1956 3.64385 14.0914 3.60866 13.9996 3.55082C13.8586 3.46202 13.7154 3.37809 13.5699 3.29902C13.4755 3.24786 13.3945 3.17524 13.3334 3.08702C13.2723 2.9988 13.2327 2.89744 13.2179 2.79113L12.9778 1.09L12.9726 1.05906C12.9203 0.795577 12.7789 0.558121 12.5722 0.386599C12.3654 0.215077 12.106 0.119944 11.8374 0.117188H8.16268C7.89028 0.118059 7.62693 0.215034 7.41902 0.391029C7.21112 0.567024 7.07199 0.810746 7.02615 1.07926L7.02229 1.10332L6.78295 2.80789C6.76827 2.9139 6.72904 3.01501 6.6684 3.10318C6.60775 3.19136 6.52735 3.26415 6.43361 3.31578C6.28666 3.39484 6.14315 3.47863 6.00393 3.56586C5.91226 3.62335 5.80826 3.65826 5.70047 3.66775C5.59269 3.67724 5.48419 3.66102 5.38389 3.62043L3.78846 2.9759L3.77342 2.96988C3.52053 2.87504 3.2424 2.87185 2.9874 2.96088C2.73241 3.04991 2.5167 3.22552 2.37779 3.45715L2.37221 3.4666L0.534435 6.64414C0.395916 6.87872 0.34536 7.15493 0.391805 7.42337C0.43825 7.69181 0.578669 7.93497 0.787951 8.10938L0.808146 8.1257L2.16424 9.18918C2.25012 9.25712 2.31865 9.34446 2.36422 9.44403C2.40978 9.5436 2.43108 9.65256 2.42635 9.76195V10.2587C2.43065 10.3674 2.4091 10.4755 2.36346 10.5743C2.31782 10.673 2.24939 10.7596 2.16381 10.8267L0.808146 11.8906L0.787951 11.907C0.578876 12.0811 0.438571 12.324 0.392126 12.5921C0.345681 12.8602 0.396124 13.1361 0.534435 13.3705L2.36963 16.5459C2.37174 16.5489 2.37361 16.552 2.37522 16.5553C2.51427 16.7864 2.72988 16.9615 2.98459 17.0502C3.2393 17.1389 3.51703 17.1356 3.76955 17.0409L3.78459 17.0353L5.37744 16.3937C5.47806 16.3531 5.5869 16.3369 5.695 16.3465C5.8031 16.3562 5.90737 16.3913 5.9992 16.4492C6.14014 16.5383 6.28337 16.6222 6.42889 16.701C6.52324 16.7521 6.60424 16.8248 6.66537 16.913C6.7265 17.0012 6.76604 17.1026 6.7808 17.2089L7.01971 18.91L7.02486 18.9409C7.07724 19.2049 7.21902 19.4426 7.42628 19.6142C7.63354 19.7858 7.89362 19.8806 8.16268 19.8828H11.8374C12.1098 19.8819 12.3731 19.785 12.581 19.609C12.7889 19.433 12.9281 19.1893 12.9739 18.9207L12.9778 18.8967L13.2171 17.1921C13.232 17.0859 13.2716 16.9847 13.3326 16.8965C13.3936 16.8083 13.4744 16.7356 13.5686 16.6842C13.7155 16.6052 13.859 16.5214 13.9983 16.4341C14.0899 16.3767 14.1939 16.3417 14.3017 16.3322C14.4095 16.3228 14.518 16.339 14.6183 16.3796L16.2137 17.022L16.2288 17.028C16.4816 17.123 16.7598 17.1263 17.0149 17.0372C17.2699 16.9482 17.4856 16.7725 17.6244 16.5407C17.6261 16.5375 17.628 16.5343 17.63 16.5312L19.4652 13.3563C19.6039 13.1217 19.6547 12.8454 19.6083 12.5769C19.5619 12.3083 19.4215 12.0651 19.2121 11.8906ZM13.4337 10.1616C13.4024 10.827 13.1784 11.4689 12.789 12.0094C12.3996 12.5499 11.8616 12.9656 11.2404 13.206C10.6191 13.4464 9.94138 13.5011 9.28961 13.3634C8.63785 13.2257 8.04013 12.9017 7.56912 12.4306C7.09812 11.9596 6.77413 11.3618 6.63656 10.71C6.49898 10.0582 6.55375 9.38053 6.79419 8.7593C7.03464 8.13807 7.45041 7.60009 7.99094 7.21077C8.53147 6.82145 9.17348 6.59758 9.83889 6.56637C10.3166 6.54533 10.7935 6.62394 11.2391 6.79718C11.6848 6.97042 12.0896 7.2345 12.4277 7.57264C12.7658 7.91078 13.0298 8.31557 13.203 8.76128C13.3762 9.20699 13.4547 9.68386 13.4337 10.1616Z" />
</svg>
