<svg xmlns="http://www.w3.org/2000/svg" width="20" height="20" viewBox="0 0 20 20">
<path fill-rule="evenodd" clip-rule="evenodd" d="M8.35532 0.816939C9.18125 -0.272313 10.8187 -0.272313 11.6447 0.816939L12.6762 2.17733C12.9015 2.4745 13.2696 2.62698 13.6391 2.57618L15.3304 2.34363C16.6847 2.15743 17.8426 3.31532 17.6564 4.66956L17.4238 6.36089C17.373 6.73035 17.5255 7.09848 17.8227 7.3238L19.1831 8.35532C20.2723 9.18125 20.2723 10.8187 19.1831 11.6447L17.8227 12.6762C17.5255 12.9015 17.373 13.2696 17.4238 13.6391L17.6564 15.3304C17.8426 16.6847 16.6847 17.8426 15.3304 17.6564L13.6391 17.4238C13.2696 17.373 12.9015 17.5255 12.6762 17.8227L11.6447 19.1831C10.8187 20.2723 9.18125 20.2723 8.35532 19.1831L7.3238 17.8227C7.09847 17.5255 6.73035 17.373 6.36089 17.4238L4.66956 17.6564C3.31532 17.8426 2.15743 16.6847 2.34363 15.3304L2.57618 13.6391C2.62698 13.2696 2.4745 12.9015 2.17733 12.6762L0.816939 11.6447C-0.272313 10.8187 -0.272313 9.18125 0.816939 8.35532L2.17733 7.3238C2.4745 7.09847 2.62698 6.73035 2.57618 6.36089L2.34363 4.66956C2.15743 3.31532 3.31532 2.15743 4.66956 2.34363L6.36089 2.57618C6.73035 2.62698 7.09848 2.4745 7.3238 2.17733L8.35532 0.816939ZM14.8738 8.20711C15.2643 7.81658 15.2643 7.18342 14.8738 6.79289C14.4832 6.40237 13.8501 6.40237 13.4596 6.79289L9.16667 11.0858L7.37377 9.29289C6.98325 8.90237 6.35008 8.90237 5.95956 9.29289C5.56904 9.68342 5.56904 10.3166 5.95956 10.7071L8.45956 13.2071C8.6471 13.3946 8.90145 13.5 9.16667 13.5C9.43188 13.5 9.68624 13.3946 9.87377 13.2071L14.8738 8.20711Z"/>
</svg>