<svg width="20" height="20" viewBox="0 0 20 20" fill="none" xmlns="http://www.w3.org/2000/svg">
<path fill-rule="evenodd" clip-rule="evenodd" d="M9.39525 11.7231C9.04786 11.3036 8.45118 11.3252 7.98461 11.5912C7.2626 12.0027 6.43396 12.2367 5.55284 12.2367C4.67171 12.2367 3.84307 12.0027 3.12106 11.5912C2.65449 11.3252 2.05781 11.3036 1.71042 11.7231C0.944093 12.6483 0.480713 13.8533 0.480713 15.171V15.7579C0.480713 16.4062 0.98535 16.9317 1.60785 16.9317H9.49782C10.1203 16.9317 10.625 16.4062 10.625 15.7579V15.171C10.625 13.8533 10.1616 12.6483 9.39525 11.7231Z" />
<path fill-rule="evenodd" clip-rule="evenodd" d="M8.31936 7.70973C8.31936 9.23769 7.0807 10.4763 5.55275 10.4763C4.02479 10.4763 2.78613 9.23769 2.78613 7.70973C2.78613 6.18177 4.02479 4.94312 5.55275 4.94312C7.0807 4.94312 8.31936 6.18177 8.31936 7.70973Z" />
<path fill-rule="evenodd" clip-rule="evenodd" d="M17.0191 11.4186C16.5301 10.8282 15.6903 10.8587 15.0335 11.233C14.0172 11.8122 12.8509 12.1416 11.6106 12.1416C10.3704 12.1416 9.20397 11.8122 8.18769 11.233C7.53096 10.8587 6.69108 10.8282 6.20211 11.4186C5.12344 12.721 4.47119 14.4171 4.47119 16.2719V17.098C4.47119 18.0104 5.18151 18.7501 6.05773 18.7501H17.1635C18.0397 18.7501 18.75 18.0104 18.75 17.098V16.2719C18.75 14.4171 18.0978 12.721 17.0191 11.4186Z" />
<path fill-rule="evenodd" clip-rule="evenodd" d="M15.5048 5.76923C15.5048 7.91995 13.7613 9.66345 11.6105 9.66345C9.45981 9.66345 7.71631 7.91995 7.71631 5.76923C7.71631 3.6185 9.45981 1.875 11.6105 1.875C13.7613 1.875 15.5048 3.6185 15.5048 5.76923Z" />
</svg>
