<svg width="20" height="20" viewBox="0 0 20 20" fill="none" xmlns="http://www.w3.org/2000/svg">
<path fill-rule="evenodd" clip-rule="evenodd" d="M2.8335 2.5C1.72893 2.5 0.833496 3.39543 0.833496 4.5V15.5C0.833496 16.6046 1.72893 17.5 2.8335 17.5H17.1668C18.2714 17.5 19.1668 16.6046 19.1668 15.5V4.5C19.1668 3.39543 18.2714 2.5 17.1668 2.5H2.8335ZM13.3335 5.83333C12.8733 5.83333 12.5002 6.20643 12.5002 6.66667C12.5002 7.1269 12.8733 7.5 13.3335 7.5H16.6668C17.1271 7.5 17.5002 7.1269 17.5002 6.66667C17.5002 6.20643 17.1271 5.83333 16.6668 5.83333H13.3335ZM14.1668 10C14.1668 9.53976 14.5399 9.16667 15.0002 9.16667H16.6668C17.1271 9.16667 17.5002 9.53976 17.5002 10C17.5002 10.4602 17.1271 10.8333 16.6668 10.8333H15.0002C14.5399 10.8333 14.1668 10.4602 14.1668 10ZM6.25016 10C7.40076 10 8.3335 9.06726 8.3335 7.91667C8.3335 6.76607 7.40076 5.83333 6.25016 5.83333C5.09957 5.83333 4.16683 6.76607 4.16683 7.91667C4.16683 9.06726 5.09957 10 6.25016 10ZM8.04806 11.2084C8.39301 11.0196 8.83416 11.0042 9.09099 11.302C9.65757 11.9589 10.0002 12.8144 10.0002 13.75V14.1667C10.0002 14.6269 9.62707 15 9.16683 15H3.3335C2.87326 15 2.50016 14.6269 2.50016 14.1667V13.75C2.50016 12.8144 2.84276 11.9589 3.40933 11.302C3.66617 11.0042 4.10732 11.0196 4.45227 11.2084C4.98607 11.5006 5.59872 11.6667 6.25016 11.6667C6.90161 11.6667 7.51425 11.5006 8.04806 11.2084Z" />
</svg>
